<svg id="Layer_1" enable-background="new 0 0 256 256" height="512" viewBox="0 0 256 256" width="512" xmlns="http://www.w3.org/2000/svg"><g><g><ellipse cx="93.15" cy="28.286" fill="#f9cfcf" rx="49.5" ry="18.15"/></g><g><path d="m142.65 160.285v-131.999c0 10.024-22.162 18.15-49.5 18.15s-49.5-8.126-49.5-18.15v131.999.001c0 10.024 22.162 18.15 49.5 18.15s49.5-8.126 49.5-18.15c0 0 0 0 0-.001z" fill="#f9a7a7"/></g><g><path d="m93.15 48.437c-25.315 0-51.5-7.537-51.5-20.15 0-12.612 26.185-20.149 51.5-20.149s51.5 7.537 51.5 20.149-26.185 20.15-51.5 20.15zm0-36.3c-27.993 0-47.5 8.511-47.5 16.149s19.507 16.15 47.5 16.15 47.5-8.512 47.5-16.15-19.507-16.149-47.5-16.149z" fill="#3762cc"/></g><g><path d="m93.15 180.437c-25.315 0-51.5-7.537-51.5-20.15v-132c0-1.104.896-2 2-2s2 .896 2 2c0 7.639 19.507 16.15 47.5 16.15s47.5-8.512 47.5-16.15c0-1.104.896-2 2-2s2 .896 2 2v131.999c0 12.613-26.185 20.151-51.5 20.151zm-47.5-144.12v123.968c0 7.64 19.507 16.151 47.5 16.151s47.5-8.512 47.5-16.15v-123.969c-8.28 7.713-28.145 12.119-47.5 12.119s-39.22-4.406-47.5-12.119z" fill="#3762cc"/></g><g><path d="m171.256 47.806-71.49 118.582c-1.534 2.545-.654 5.855 1.942 7.302l66.682 37.16c3.18 1.772 7.05 1.772 10.23 0l66.682-37.16c2.596-1.447 3.476-4.757 1.942-7.302l-71.489-118.582c-1.021-1.694-3.478-1.694-4.499 0z" fill="#a4c9ff"/></g><g><path d="m173.505 214.189c-2.091 0-4.182-.53-6.088-1.593l-66.683-37.16c-1.733-.966-2.969-2.554-3.479-4.472s-.227-3.91.798-5.61l71.489-118.581c0-.001 0-.001 0-.001.845-1.4 2.326-2.237 3.962-2.237s3.117.837 3.962 2.237l71.49 118.583c1.024 1.699 1.308 3.691.798 5.61-.51 1.917-1.746 3.505-3.479 4.471l-66.682 37.16c-1.905 1.062-3.996 1.593-6.088 1.593zm-.536-165.351-71.49 118.582c-.46.763-.587 1.656-.358 2.517.229.86.783 1.572 1.561 2.006l66.683 37.16c2.594 1.446 5.69 1.444 8.283 0l66.682-37.16c.778-.434 1.332-1.146 1.561-2.005.229-.861.102-1.755-.358-2.518l-71.491-118.582c-.159-.263-.404-.303-.537-.303s-.377.04-.536.303z" fill="#3762cc"/></g><g><path d="m173.505 214.179c-1.104 0-2-.896-2-2v-165.644c0-1.104.896-2 2-2s2 .896 2 2v165.644c0 1.104-.895 2-2 2z" fill="#3762cc"/></g><g><path d="m8.526 132.778c-.349.6-.542 1.29-.542 2.008v70.909c0 .718.194 1.408.543 2.007h-.002c.347.596.847 1.101 1.466 1.455 58.243 33.231 44.932 25.636 62.366 35.583 1.225.698 2.588 1.047 3.952 1.047v-74.336z" fill="#e0ebfc"/></g><g><path d="m144.093 132.778c.349.6.542 1.29.542 2.008v70.909c0 .718-.194 1.408-.543 2.007h.001c-.347.596-.847 1.101-1.466 1.455-58.243 33.231-44.932 25.636-62.366 35.583-1.225.698-2.588 1.047-3.952 1.047v-74.336z" fill="#e0ebfc"/></g><g><path d="m142.623 131.321-62.247-35.515c-1.26-.718-2.663-1.078-4.066-1.078s-2.806.36-4.066 1.078l-62.248 35.515c-.621.354-1.122.861-1.47 1.457l67.784 38.673c2.642-1.507 64.337-36.706 67.784-38.673-.348-.597-.85-1.103-1.471-1.457z" fill="#e0ebfc"/></g><g><path d="m76.31 247.787c-1.73 0-3.439-.453-4.943-1.311l-62.367-35.581c-.915-.524-1.675-1.279-2.203-2.187-.532-.915-.813-1.957-.813-3.013v-70.909c0-1.059.281-2.101.813-3.015.553-.948 1.768-1.275 2.72-.731l67.784 38.674c.624.356 1.009 1.02 1.009 1.737v74.336c0 1.105-.896 2-2 2zm-66.327-111.875v69.783c0 .351.094.696.271 1.001.175.301.428.552.731.726l62.363 35.58c.307.176.629.322.961.44v-70.83z" fill="#3762cc"/></g><g><path d="m76.31 247.787c-1.104 0-2-.896-2-2v-74.336c0-.718.385-1.381 1.009-1.737l67.784-38.674c.954-.542 2.166-.218 2.718.729.533.915.815 1.958.815 3.017v70.909c0 1.057-.282 2.099-.814 3.013-.526.905-1.287 1.661-2.198 2.185l-62.371 35.584c-1.504.857-3.214 1.31-4.943 1.31zm2-75.175v70.83c.332-.118.653-.266.961-.44l62.366-35.582c.3-.172.553-.423.728-.724.177-.305.271-.65.271-1.001v-69.784z" fill="#3762cc"/></g><g><path d="m76.309 173.451c-.342 0-.684-.088-.991-.263l-67.784-38.673c-.464-.265-.803-.704-.941-1.22s-.064-1.065.206-1.526c.531-.909 1.293-1.664 2.205-2.185l62.249-35.515c3.075-1.754 7.038-1.754 10.114 0l62.248 35.514s0 0 .001.001c.913.521 1.676 1.277 2.206 2.187.269.461.342 1.01.204 1.525s-.477.954-.94 1.219l-67.786 38.673c-.307.175-.649.263-.991.263zm-64.289-40.983 64.29 36.681 64.29-36.681-61.216-34.924c-1.87-1.066-4.281-1.066-6.15 0z" fill="#3762cc"/></g></g></svg>