<svg id="Capa_1" enable-background="new 0 0 512 512" height="512" viewBox="0 0 512 512" width="512" xmlns="http://www.w3.org/2000/svg"><g><g><path d="m212.645 386.673h86.711v68.055h-86.711z" fill="#8db3df"/><path d="m212.645 386.673h41.645v68.055h-41.645z" fill="#799fca"/><g><path d="m343 482.221h-174c-5.523 0-10-4.477-10-10v-7.494c0-5.523 4.477-10 10-10h174c5.523 0 10 4.477 10 10v7.494c0 5.523-4.477 10-10 10z" fill="#a2c7f8"/></g><g><path d="m209 472.221v-7.494c0-5.523 4.477-10 10-10h-50c-5.523 0-10 4.477-10 10v7.494c0 5.523 4.477 10 10 10h50c-5.523 0-10-4.477-10-10z" fill="#8db3df"/></g><g><path d="m7.5 366.673c0 11.046 8.954 20 20 20h457c11.046 0 20-8.954 20-20v-29.7h-497z" fill="#a2c7f8"/></g><g><path d="m58 366.673v-29.7h-50.5v29.7c0 11.046 8.954 20 20 20h50.5c-11.046 0-20-8.954-20-20z" fill="#8db3df"/></g><g><path d="m504.5 336.973h-497v-292.194c0-8.284 6.716-15 15-15h467c8.284 0 15 6.716 15 15z" fill="#647fa0"/></g><path d="m38.936 310.537c-2.761 0-5-2.239-5-5v-244.322c0-2.761 2.239-5 5-5h19.064v-11.436c0-8.284 6.716-15 15-15h-50.5c-8.284 0-15 6.716-15 15v292.194h50.5v-26.436z" fill="#5e6f90"/><g><path d="m33.936 305.537v-244.322c0-2.761 2.239-5 5-5h434.128c2.761 0 5 2.239 5 5v244.322c0 2.761-2.239 5-5 5h-434.128c-2.761 0-5-2.239-5-5z" fill="#c4e2ff"/></g><path d="m88.872 305.537v-21.322h-24.372c-1.657 0-3-1.343-3-3v-194c0-1.657 1.343-3 3-3h24.372v-23c0-2.761 2.239-5 5-5h-54.936c-2.761 0-5 2.239-5 5v244.322c0 2.761 2.239 5 5 5h54.936c-2.761 0-5-2.239-5-5z" fill="#b3dafe"/></g><g><g><path d="m330.5 284.215h-183.5c-1.657 0-3-1.343-3-3v-194c0-1.657 1.343-3 3-3h183.5c1.657 0 3 1.343 3 3v194c0 1.657-1.343 3-3 3z" fill="#fff"/></g><path d="m186 281.215v-75.148h-1.5c-1.657 0-3-1.343-3-3v-60.597c0-1.657 1.343-3 3-3h1.5v-52.255c0-1.657 1.343-3 3-3h-42c-1.657 0-3 1.343-3 3v194c0 1.657 1.343 3 3 3h42c-1.657 0-3-1.343-3-3z" fill="#eaf6ff"/><g><g><path d="m366.5 224.215h81c1.657 0 3 1.343 3 3v54c0 1.657-1.343 3-3 3h-81c-1.657 0-3-1.343-3-3v-54c0-1.657 1.343-3 3-3z" fill="#fe646f"/></g><g><path d="m394 281.215v-54c0-1.657 1.343-3 3-3h-30.5c-1.657 0-3 1.343-3 3v54c0 1.657 1.343 3 3 3h30.5c-1.657 0-3-1.343-3-3z" fill="#fd4755"/></g><g><path d="m366.5 146.215h81c1.657 0 3 1.343 3 3v44c0 1.657-1.343 3-3 3h-81c-1.657 0-3-1.343-3-3v-44c0-1.657 1.343-3 3-3z" fill="#fed402"/></g><g><path d="m394 193.215v-44c0-1.657 1.343-3 3-3h-30.5c-1.657 0-3 1.343-3 3v44c0 1.657 1.343 3 3 3h30.5c-1.657 0-3-1.343-3-3z" fill="#fac600"/></g><g><path d="m366.5 84.215h81c1.657 0 3 1.343 3 3v28c0 1.657-1.343 3-3 3h-81c-1.657 0-3-1.343-3-3v-28c0-1.657 1.343-3 3-3z" fill="#46cc8d"/></g><g><path d="m394 115.215v-28c0-1.657 1.343-3 3-3h-30.5c-1.657 0-3 1.343-3 3v28c0 1.657 1.343 3 3 3h30.5c-1.657 0-3-1.343-3-3z" fill="#08b865"/></g></g><g><path d="m217.021 177.853c-1.155-2 .289-4.5 2.598-4.5h28.478v-30.883c0-1.657-1.343-3-3-3h-60.597c-1.657 0-3 1.343-3 3v60.597c0 1.657 1.343 3 3 3h48.811z" fill="#fed402"/><g><path d="m202.403 203.067v-60.597c0-1.657 1.343-3 3-3h-20.903c-1.657 0-3 1.343-3 3v60.597c0 1.657 1.343 3 3 3h20.903c-1.657 0-3-1.343-3-3z" fill="#fac600"/></g><g><path d="m257.81 239.5 35.592-61.648c1.155-2-.289-4.5-2.598-4.5h-71.184c-2.309 0-3.753 2.5-2.598 4.5l35.592 61.648c1.154 2 4.041 2 5.196 0z" fill="#0593fc"/></g><g><path d="m244.406 177.853c-1.155-2 .289-4.5 2.598-4.5h-27.385c-2.309 0-3.753 2.5-2.598 4.5l35.592 61.647c1.155 2 4.042 2 5.196 0l11.094-19.216z" fill="#0182fc"/></g></g><g><g><path d="m112.5 284.215h-48c-1.657 0-3-1.343-3-3v-194c0-1.657 1.343-3 3-3h48c1.657 0 3 1.343 3 3v194c0 1.657-1.343 3-3 3z" fill="#0593fc"/></g><g><path d="m82 115.215v-28c0-1.657 1.343-3 3-3h-20.5c-1.657 0-3 1.343-3 3v28z" fill="#0182fc"/></g><g><path d="m112.5 284.215h-48c-1.657 0-3-1.343-3-3v-166h54v166c0 1.657-1.343 3-3 3z" fill="#fff"/></g></g></g><g><path d="m238 353.715c-4.143 0-7.5 3.357-7.5 7.5s3.357 7.5 7.5 7.5h36c4.143 0 7.5-3.357 7.5-7.5s-3.357-7.5-7.5-7.5z"/><path d="m489.5 22.278h-467c-12.406 0-22.5 10.094-22.5 22.5v321.895c0 15.164 12.336 27.5 27.5 27.5h177.645v53.055h-36.145c-9.649 0-17.5 7.851-17.5 17.5v7.494c0 9.649 7.851 17.5 17.5 17.5h174c9.649 0 17.5-7.851 17.5-17.5v-7.494c0-9.649-7.851-17.5-17.5-17.5h-36.145v-9.228c0-4.143-3.357-7.5-7.5-7.5s-7.5 3.357-7.5 7.5v9.228h-71.711v-53.055h71.711v8.827c0 4.143 3.357 7.5 7.5 7.5s7.5-3.357 7.5-7.5v-8.827h86.145c4.143 0 7.5-3.357 7.5-7.5s-3.357-7.5-7.5-7.5h-365.5c-6.893 0-12.5-5.607-12.5-12.5v-22.2h482v22.2c0 6.893-5.607 12.5-12.5 12.5h-56.5c-4.143 0-7.5 3.357-7.5 7.5s3.357 7.5 7.5 7.5h56.5c15.164 0 27.5-12.336 27.5-27.5v-321.895c0-12.406-10.094-22.5-22.5-22.5zm-146.5 439.95c1.379 0 2.5 1.121 2.5 2.5v7.494c0 1.379-1.121 2.5-2.5 2.5h-174c-1.379 0-2.5-1.121-2.5-2.5v-7.494c0-1.379 1.121-2.5 2.5-2.5zm154-132.755h-482v-284.695c0-4.136 3.364-7.5 7.5-7.5h467c4.136 0 7.5 3.364 7.5 7.5z"/><path d="m473.063 48.715h-434.126c-6.893 0-12.5 5.607-12.5 12.5v244.322c0 6.893 5.607 12.5 12.5 12.5h434.127c6.893 0 12.5-5.607 12.5-12.5v-244.322c-.001-6.893-5.608-12.5-12.501-12.5zm-2.5 254.322h-429.126v-239.322h429.127v239.322z"/><path d="m147 291.715h183.5c5.79 0 10.5-4.71 10.5-10.5v-130.215c0-4.143-3.357-7.5-7.5-7.5s-7.5 3.357-7.5 7.5v125.715h-174.5v-185h174.5v24.285c0 4.143 3.357 7.5 7.5 7.5s7.5-3.357 7.5-7.5v-28.785c0-5.79-4.71-10.5-10.5-10.5h-183.5c-5.79 0-10.5 4.71-10.5 10.5v194c0 5.79 4.71 10.5 10.5 10.5z"/><path d="m366.5 291.715h81c5.79 0 10.5-4.71 10.5-10.5v-54c0-5.79-4.71-10.5-10.5-10.5h-81c-5.79 0-10.5 4.71-10.5 10.5v54c0 5.79 4.71 10.5 10.5 10.5zm4.5-60h72v45h-72z"/><path d="m366.5 203.715h81c5.79 0 10.5-4.71 10.5-10.5v-44c0-5.79-4.71-10.5-10.5-10.5h-81c-5.79 0-10.5 4.71-10.5 10.5v44c0 5.79 4.71 10.5 10.5 10.5zm4.5-50h72v35h-72z"/><path d="m366.5 125.715h81c5.79 0 10.5-4.71 10.5-10.5v-28c0-5.79-4.71-10.5-10.5-10.5h-81c-5.79 0-10.5 4.71-10.5 10.5v28c0 5.79 4.71 10.5 10.5 10.5zm4.5-34h72v19h-72z"/><path d="m245.097 131.97h-60.597c-5.79 0-10.5 4.71-10.5 10.5v60.597c0 5.79 4.71 10.5 10.5 10.5h44.481l17.138 29.685c1.87 3.238 5.354 5.249 9.093 5.249h.002c3.738-.001 7.222-2.013 9.091-5.25l35.594-61.648c1.869-3.238 1.868-7.262-.002-10.5-1.869-3.237-5.354-5.249-9.093-5.249h-35.207v-23.384c0-5.79-4.71-10.5-10.5-10.5zm-56.097 66.596v-51.596h51.597v18.883h-20.978c-3.74 0-7.225 2.012-9.094 5.251-1.869 3.238-1.869 7.262.001 10.499l9.794 16.964h-31.32zm62.314 37.184s0 .001 0 0c.001-.002.003-.006.005-.009zm31.696-54.897-27.798 48.147-27.798-48.147z"/><path d="m64.5 291.715h48c5.79 0 10.5-4.71 10.5-10.5v-194c0-5.79-4.71-10.5-10.5-10.5h-48c-5.79 0-10.5 4.71-10.5 10.5v194c0 5.79 4.71 10.5 10.5 10.5zm43.5-15h-12v-14h12zm0-29h-12v-13h12zm0-28h-12v-13h12zm0-28h-12v-13h12zm0-28h-12v-13h12zm0-28h-12v-13h12zm-39-44h39v16h-39zm0 31h12v13h-12zm0 28h12v13h-12zm0 28h12v13h-12zm0 28h12v13h-12zm0 28h12v13h-12zm0 28h12v14h-12z"/></g></g></svg>